<svg xmlns="http://www.w3.org/2000/svg" width="420" height="200" viewBox="0 0 420 200" role="img" aria-labelledby="t d">
<title id="t">Top languages used by bohdanbulakh</title>
<desc id="d">TypeScript 49.1%, JavaScript 10.1%, Java 9.3%, Go 8.6%, C# 8.5%, Kotlin 4.7%, Other 9.6%</desc>
<style>text{font-family:system-ui, -apple-system, 'Segoe UI', Ubuntu, sans-serif;}</style>
<rect width="420" height="200" rx="6" fill="#0d1117"/>
<rect x="0.5" y="0.5" width="419" height="199" rx="6" fill="none" stroke="#21262d"/>
<text x="24" y="36" font-size="17" font-weight="600" fill="#ffffff">Top languages</text>
<text x="24" y="55" font-size="11.5" fill="#898781">by bytes of code across 41 public repos</text>
<path d="M28.00,74 H200.87 V92 H28.00 a4,4 0 0 1 -4,-4 V78 a4,4 0 0 1 4,-4 Z" fill="#3987e5"/>
<path d="M202.87,74 H239.38 V92 H202.87 V74 Z" fill="#d95926"/>
<path d="M241.38,74 H274.97 V92 H241.38 V74 Z" fill="#199e70"/>
<path d="M276.97,74 H307.76 V92 H276.97 V74 Z" fill="#c98500"/>
<path d="M309.76,74 H340.45 V92 H309.76 V74 Z" fill="#d55181"/>
<path d="M342.45,74 H359.41 V92 H342.45 V74 Z" fill="#008300"/>
<path d="M361.41,74 H392.00 a4,4 0 0 1 4,4 V88 a4,4 0 0 1 -4,4 H361.41 V74 Z" fill="#898781"/>
<text x="112.43" y="86.8" text-anchor="middle" font-size="10.5" font-weight="600" fill="#ffffff">TypeScript 49.1%</text>
<rect x="24" y="110" width="10" height="10" rx="2" fill="#3987e5"/>
<text x="41" y="118" font-size="11.5" fill="#c3c2b7">TypeScript</text>
<text x="184" y="118" font-size="11.5" text-anchor="end" fill="#898781" font-variant-numeric="tabular-nums">49.1%</text>
<rect x="24" y="130" width="10" height="10" rx="2" fill="#d95926"/>
<text x="41" y="138" font-size="11.5" fill="#c3c2b7">JavaScript</text>
<text x="184" y="138" font-size="11.5" text-anchor="end" fill="#898781" font-variant-numeric="tabular-nums">10.1%</text>
<rect x="24" y="150" width="10" height="10" rx="2" fill="#199e70"/>
<text x="41" y="158" font-size="11.5" fill="#c3c2b7">Java</text>
<text x="184" y="158" font-size="11.5" text-anchor="end" fill="#898781" font-variant-numeric="tabular-nums">9.3%</text>
<rect x="24" y="170" width="10" height="10" rx="2" fill="#c98500"/>
<text x="41" y="178" font-size="11.5" fill="#c3c2b7">Go</text>
<text x="184" y="178" font-size="11.5" text-anchor="end" fill="#898781" font-variant-numeric="tabular-nums">8.6%</text>
<rect x="214" y="110" width="10" height="10" rx="2" fill="#d55181"/>
<text x="231" y="118" font-size="11.5" fill="#c3c2b7">C#</text>
<text x="374" y="118" font-size="11.5" text-anchor="end" fill="#898781" font-variant-numeric="tabular-nums">8.5%</text>
<rect x="214" y="130" width="10" height="10" rx="2" fill="#008300"/>
<text x="231" y="138" font-size="11.5" fill="#c3c2b7">Kotlin</text>
<text x="374" y="138" font-size="11.5" text-anchor="end" fill="#898781" font-variant-numeric="tabular-nums">4.7%</text>
<rect x="214" y="150" width="10" height="10" rx="2" fill="#898781"/>
<text x="231" y="158" font-size="11.5" fill="#c3c2b7">Other</text>
<text x="374" y="158" font-size="11.5" text-anchor="end" fill="#898781" font-variant-numeric="tabular-nums">9.6%</text>
</svg>
